<svg width="32" height="32" viewBox="0 0 32 32" fill="none" xmlns="http://www.w3.org/2000/svg">
<rect width="32" height="32" rx="16" fill="white"/>
<mask id="path-2-inside-1_830_261" fill="white">
<path d="M16.0011 25L6.66823 16.2032C5.92379 15.5015 5.42748 14.6858 5.17934 13.7559C4.93723 12.826 4.94026 11.9018 5.18841 10.9834C5.43656 10.0592 5.92984 9.25481 6.66823 8.57023C7.4248 7.86855 8.28727 7.40361 9.25566 7.17543C10.2301 6.94152 11.2015 6.94152 12.1699 7.17543C13.1444 7.40932 14.0099 7.87426 14.7664 8.57023L16.0011 9.69978L17.2359 8.57023C17.9984 7.87426 18.8639 7.40932 19.8324 7.17543C20.8007 6.94152 21.7691 6.94152 22.7375 7.17543C23.712 7.40361 24.5775 7.86855 25.3341 8.57023C26.0724 9.25481 26.5657 10.0592 26.8138 10.9834C27.0621 11.9018 27.0621 12.826 26.8138 13.7559C26.5717 14.6858 26.0785 15.5015 25.3341 16.2032L16.0011 25Z"/>
</mask>
<path d="M16.0011 25L6.66823 16.2032C5.92379 15.5015 5.42748 14.6858 5.17934 13.7559C4.93723 12.826 4.94026 11.9018 5.18841 10.9834C5.43656 10.0592 5.92984 9.25481 6.66823 8.57023C7.4248 7.86855 8.28727 7.40361 9.25566 7.17543C10.2301 6.94152 11.2015 6.94152 12.1699 7.17543C13.1444 7.40932 14.0099 7.87426 14.7664 8.57023L16.0011 9.69978L17.2359 8.57023C17.9984 7.87426 18.8639 7.40932 19.8324 7.17543C20.8007 6.94152 21.7691 6.94152 22.7375 7.17543C23.712 7.40361 24.5775 7.86855 25.3341 8.57023C26.0724 9.25481 26.5657 10.0592 26.8138 10.9834C27.0621 11.9018 27.0621 12.826 26.8138 13.7559C26.5717 14.6858 26.0785 15.5015 25.3341 16.2032L16.0011 25Z" fill="white" stroke="black" stroke-width="4" mask="url(#path-2-inside-1_830_261)"/>
<path d="M16.0011 25L6.66823 16.2032C5.92379 15.5015 5.42748 14.6858 5.17934 13.7559C4.93723 12.826 4.94026 11.9018 5.18841 10.9834C5.43656 10.0592 5.92984 9.25481 6.66823 8.57023C7.4248 7.86855 8.28727 7.40361 9.25566 7.17543C10.2301 6.94152 11.2015 6.94152 12.1699 7.17543C13.1444 7.40932 14.0099 7.87426 14.7664 8.57023L16.0011 9.69978L17.2359 8.57023C17.9984 7.87426 18.8639 7.40932 19.8324 7.17543C20.8007 6.94152 21.7691 6.94152 22.7375 7.17543C23.712 7.40361 24.5775 7.86855 25.3341 8.57023C26.0724 9.25481 26.5657 10.0592 26.8138 10.9834C27.0621 11.9018 27.0621 12.826 26.8138 13.7559C26.5717 14.6858 26.0785 15.5015 25.3341 16.2032L16.0011 25Z" fill="#D35252"/>
</svg>
