<svg width="62" height="62" viewBox="0 0 62 62" fill="none" xmlns="http://www.w3.org/2000/svg">
<g filter="url(#filter0_d_83_138)">
<rect x="15" y="10" width="32" height="32" rx="16" fill="white"/>
<path d="M41.8138 23.7559C42.0621 22.826 42.0621 21.9018 41.8138 20.9834C41.5657 20.0592 41.0724 19.2548 40.3341 18.5702L41.8138 23.7559ZM41.8138 23.7559C41.5717 24.6858 41.0785 25.5015 40.3341 26.2032L41.8138 23.7559ZM21.1538 21.2442L21.1542 21.2427C21.3509 20.51 21.7402 19.8672 22.3481 19.3036L22.3482 19.3034C22.9828 18.7149 23.6915 18.3357 24.485 18.1488L24.485 18.1488L24.4891 18.1478C25.3106 17.9506 26.1215 17.951 26.9351 18.1475L26.9365 18.1478C27.741 18.3409 28.4548 18.7224 29.0894 19.3062L29.0914 19.308L30.3261 20.4376L31.001 21.0551L31.676 20.4376L32.91 19.3088C32.9102 19.3087 32.9104 19.3085 32.9105 19.3084C33.5532 18.722 34.2687 18.3403 35.0671 18.1475L35.0672 18.1475C35.8812 17.9508 36.6886 17.9508 37.5027 18.1475L37.5027 18.1475L37.5095 18.1491C38.3096 18.3364 39.0207 18.716 39.6541 19.3034L39.6542 19.3035C40.2621 19.8672 40.6513 20.51 40.848 21.2426L40.8485 21.2443C41.0502 21.9908 41.0511 22.736 40.8477 23.498L40.8476 23.498L40.8461 23.5039C40.6544 24.24 40.265 24.8941 39.6482 25.4755L31.0011 33.6258L22.3541 25.4755C21.7369 24.8938 21.3437 24.2386 21.1463 23.501C20.9483 22.7386 20.9517 21.9921 21.1538 21.2442Z" fill="white" stroke="black" stroke-width="2"/>
</g>
<defs>
<filter id="filter0_d_83_138" x="0" y="0" width="62" height="62" filterUnits="userSpaceOnUse" color-interpolation-filters="sRGB">
<feFlood flood-opacity="0" result="BackgroundImageFix"/>
<feColorMatrix in="SourceAlpha" type="matrix" values="0 0 0 0 0 0 0 0 0 0 0 0 0 0 0 0 0 0 127 0" result="hardAlpha"/>
<feOffset dy="5"/>
<feGaussianBlur stdDeviation="7.5"/>
<feColorMatrix type="matrix" values="0 0 0 0 0.0534375 0 0 0 0 0.101475 0 0 0 0 0.225 0 0 0 0.2 0"/>
<feBlend mode="normal" in2="BackgroundImageFix" result="effect1_dropShadow_83_138"/>
<feBlend mode="normal" in="SourceGraphic" in2="effect1_dropShadow_83_138" result="shape"/>
</filter>
</defs>
</svg>
